<?xml version="1.0" encoding="UTF-8" standalone="no"?>
<!-- Created with Inkscape (http://www.inkscape.org/) -->

<svg
   width="210mm"
   height="297mm"
   viewBox="0 0 210 297"
   version="1.1"
   id="svg135"
   inkscape:version="1.2.2 (732a01da63, 2022-12-09)"
   sodipodi:docname="LOGO CARPINT.svg"
   xmlns:inkscape="http://www.inkscape.org/namespaces/inkscape"
   xmlns:sodipodi="http://sodipodi.sourceforge.net/DTD/sodipodi-0.dtd"
   xmlns:xlink="http://www.w3.org/1999/xlink"
   xmlns="http://www.w3.org/2000/svg"
   xmlns:svg="http://www.w3.org/2000/svg">
  <sodipodi:namedview
     id="namedview137"
     pagecolor="#ffffff"
     bordercolor="#000000"
     borderopacity="0.25"
     inkscape:showpageshadow="2"
     inkscape:pageopacity="0.0"
     inkscape:pagecheckerboard="0"
     inkscape:deskcolor="#d1d1d1"
     inkscape:document-units="mm"
     showgrid="false"
     inkscape:zoom="0.46769781"
     inkscape:cx="369.89696"
     inkscape:cy="570.88144"
     inkscape:window-width="1366"
     inkscape:window-height="705"
     inkscape:window-x="-8"
     inkscape:window-y="-8"
     inkscape:window-maximized="1"
     inkscape:current-layer="g1178" />
  <defs
     id="defs132">
    <inkscape:path-effect
       effect="bspline"
       id="path-effect1673"
       is_visible="true"
       lpeversion="1"
       weight="33.333333"
       steps="2"
       helper_size="0"
       apply_no_weight="true"
       apply_with_weight="true"
       only_selected="false" />
    <rect
       x="132.56423"
       y="258.71406"
       width="534.53318"
       height="106.90664"
       id="rect713" />
  </defs>
  <g
     inkscape:label="Capa 1"
     inkscape:groupmode="layer"
     id="layer1">
    <g
       id="g833"
       transform="translate(-7.92,-26.022857)">
      <g
         id="g839"
         transform="matrix(1.9042397,0,0,1.7463833,-108.78558,-91.163278)">
        <ellipse
           style="font-variation-settings:normal;opacity:1;vector-effect:none;fill:#ffccaa;fill-opacity:1;fill-rule:evenodd;stroke-width:0.264583;stroke-linecap:butt;stroke-linejoin:miter;stroke-miterlimit:4;stroke-dasharray:none;stroke-dashoffset:0;stroke-opacity:1;-inkscape-stroke:none;stop-color:#000000;stop-opacity:1"
           id="path603"
           cx="-119.06203"
           cy="-146.55208"
           rx="49.217144"
           ry="49.78286"
           transform="rotate(179.67647)" />
        <text
           xml:space="preserve"
           id="text711"
           style="font-weight:bold;font-size:9.87777px;font-family:sans-serif;-inkscape-font-specification:'sans-serif, Bold';white-space:pre;fill:#280b0b;stroke-width:4.40315"><textPath
             xlink:href="#path603"
             id="textPath826"><tspan
               id="tspan715"
               style="font-size:9.87777px;fill:#280b0b">VERDUZCO CARPINT</tspan></textPath></text>
      </g>
      <ellipse
         style="font-variation-settings:normal;opacity:1;vector-effect:none;fill:#c8b7b7;fill-opacity:1;fill-rule:evenodd;stroke-width:0.266377;stroke-linecap:butt;stroke-linejoin:miter;stroke-miterlimit:4;stroke-dasharray:none;stroke-dashoffset:0;stroke-opacity:1;-inkscape-stroke:none;stop-color:#000000;stop-opacity:1"
         id="path841"
         cx="119.93143"
         cy="163.49144"
         rx="90.514282"
         ry="84.291435" />
      <g
         id="g1178"
         transform="matrix(1.7143954,0,0,1.4013868,343.75473,-126.73587)">
        <path
           style="font-variation-settings:normal;opacity:1;vector-effect:none;fill:#241c1c;fill-opacity:1;stroke:#000000;stroke-width:0.264583px;stroke-linecap:butt;stroke-linejoin:miter;stroke-miterlimit:4;stroke-dasharray:none;stroke-dashoffset:0;stroke-opacity:1;-inkscape-stroke:none;stop-color:#000000;stop-opacity:1"
           d="m -161.93571,235.76143 2.82857,0.84857 -0.28286,-2.97 3.11143,0.70714 -0.42429,-2.68714 2.68715,0.28286 -0.56572,-2.26286 2.26286,0.70714 0.28286,-2.82857 2.40428,0.70714 0.28286,-2.68714 2.54572,0.56571 -0.28286,-2.26285 2.82857,0.56571 -0.42429,-2.68714 2.68715,0.84857 -0.28286,-2.54571 2.54571,0.84857 -0.42428,-2.97 2.26286,1.27285 0.14142,-2.68714 2.12143,0.99 -0.14143,-2.54571 2.82857,0.14143 -0.28285,-2.54572 3.81857,0.56571 -0.56571,-3.11142 2.68714,1.13143 -0.70715,-2.82858 2.68715,1.13143 -0.42429,-3.39428 3.81857,0.42428 -0.99,-2.26286 2.97,0.28286 -0.99,-2.54571 2.68715,0.56571 -0.42429,-2.12143 2.82857,0.28286 -0.56571,-2.12143 2.68714,0.42429 -0.56571,-1.98 3.67714,0.42428 -0.56572,-3.11142 2.82857,0.70714 -0.70714,-2.40429 3.25286,0.28286 -0.56571,-2.54571 3.25285,0.56571 -0.84857,-2.40429 -1.55571,-1.83857 -58.26857,47.23714 z"
           id="path953" />
        <path
           style="font-variation-settings:normal;opacity:1;vector-effect:none;fill:#241c1c;fill-opacity:1;stroke:#000000;stroke-width:0.264583px;stroke-linecap:butt;stroke-linejoin:miter;stroke-miterlimit:4;stroke-dasharray:none;stroke-dashoffset:0;stroke-opacity:1;-inkscape-stroke:none;stop-color:#000000;stop-opacity:1"
           d="m -163.49143,233.92285 -2.40428,-2.40428 0.28285,-6.93 53.88429,-44.69143 6.08143,6.64714 z"
           id="path955" />
        <path
           style="font-variation-settings:normal;opacity:1;vector-effect:none;fill:#2b1100;fill-opacity:1;stroke:#000000;stroke-width:0.264583px;stroke-linecap:butt;stroke-linejoin:miter;stroke-miterlimit:4;stroke-dasharray:none;stroke-dashoffset:0;stroke-opacity:1;-inkscape-stroke:none;stop-color:#000000;stop-opacity:1"
           d="M -109.60714,177.49286 Z"
           id="path957" />
        <rect
           style="fill:#241c1c;stroke-width:1.46696"
           id="rect1013"
           width="11.357529"
           height="9.6505356"
           x="72.306877"
           y="189.62206"
           transform="matrix(0.63839374,0.76970997,-0.78959963,0.61362238,0,0)" />
        <rect
           style="fill:#ffffff;stroke-width:1.165"
           id="rect1067"
           width="5.5157142"
           height="2.2628572"
           x="66.661346"
           y="194.09901"
           transform="rotate(49.650932)"
           inkscape:transform-center-x="1.2364995"
           inkscape:transform-center-y="-1.0155483" />
        <path
           style="font-variation-settings:normal;opacity:1;vector-effect:none;fill:#2b1100;fill-opacity:1;stroke:#000000;stroke-width:0.159661px;stroke-linecap:butt;stroke-linejoin:miter;stroke-miterlimit:4;stroke-dasharray:none;stroke-dashoffset:0;stroke-opacity:1;-inkscape-stroke:none;stop-color:#000000;stop-opacity:1"
           d="m -135.88983,215.06988 c 5.55545,6.06179 13.03605,13.47721 18.2615,17.59684 5.22546,4.11962 8.19563,4.94354 10.83579,4.59037 2.64016,-0.35316 4.9503,-1.8833 5.83036,-4.11962 0.88007,-2.23632 0.33004,-5.17888 -4.45537,-10.53455 -4.78541,-5.35568 -13.80594,-13.12404 -21.2316,-19.95098 -7.42565,-6.82693 -13.256,-12.71205 -13.53096,-15.53705 -0.27497,-2.82499 5.00534,-2.58958 8.58064,-2.47188 3.5753,0.1177 5.4454,0.1177 6.4354,-0.29421 0.98999,-0.4119 1.1,-1.23581 0.55005,-1.94207 -0.54995,-0.70626 -1.76003,-1.29478 -5.5554,-2.11875 -3.79537,-0.82398 -10.17576,-1.88331 -15.23622,-2.05988 -5.06047,-0.17658 -8.8007,0.52964 -11.66101,2.41299 -2.86032,1.88334 -4.84044,4.9436 -5.44543,7.41549 -0.60499,2.4719 0.16506,4.35515 -0.33004,6.23835 -0.4951,1.88321 -2.2552,3.76644 -3.85026,4.70808 -1.59506,0.94163 -3.02515,0.94163 -3.24521,2.70733 -0.22006,1.76571 0.77,5.29679 2.2552,7.76857 1.4852,2.47179 3.46532,3.88421 4.95039,4.35495 1.48507,0.47074 2.47513,-7e-5 2.53013,-1.64785 0.055,-1.64779 -0.82506,-4.47265 -0.44004,-6.59145 0.38502,-2.1188 2.03512,-3.53123 4.23538,-4.41403 2.20027,-0.8828 4.95044,-1.23591 8.14073,0.94177 3.19029,2.17769 6.82051,6.88579 12.37597,12.94758 z"
           id="path1671"
           inkscape:path-effect="#path-effect1673"
           inkscape:original-d="m -137.81513,213.71611 c 7.48073,7.41558 14.96135,14.83098 22.44178,22.24623 2.97045,0.82411 5.94062,1.64803 8.91071,2.4718 2.31038,-1.53003 4.62052,-3.06016 6.930553,-4.59049 -0.549913,-2.94252 -1.099933,-5.88508 -1.650133,-8.82787 -9.02076,-7.76851 -18.04129,-15.53688 -27.06216,-23.30557 -5.83043,-5.88519 -11.66077,-11.77032 -17.49139,-17.65573 5.28068,0.23558 10.56099,0.47099 15.84127,0.70623 1.87033,1.7e-4 3.74043,1.7e-4 5.61043,0 0.11017,-0.82379 0.22017,-1.6477 0.33003,-2.4718 -1.20996,-0.58837 -2.42004,-1.17689 -3.63028,-1.76557 -6.38049,-1.0592 -12.76088,-2.11853 -19.14153,-3.17804 -3.74022,0.70641 -7.48045,1.41263 -11.22089,2.11869 -1.98005,3.06056 -3.96016,6.12082 -5.94048,9.18098 0.77023,1.88348 1.54027,3.76673 2.31018,5.64984 -1.76002,1.88348 -3.52012,3.76671 -5.28041,5.64983 -1.42999,1.6e-4 -2.86008,1.6e-4 -4.29035,0 0.99025,3.53138 1.98031,7.06246 2.97024,10.59344 1.98035,1.41265 3.96046,2.82508 5.94047,4.23738 0.99025,-0.47067 1.98031,-0.94148 2.97024,-1.41246 -0.87993,-2.82481 -1.75999,-5.64967 -2.64021,-8.47475 1.65031,-1.41232 3.30041,-2.82476 4.9504,-4.23738 2.75042,-0.35295 5.50059,-0.70607 8.25065,-1.05935 3.63051,4.70846 7.26074,9.41656 10.89088,14.12459 z" />
        <path
           style="font-variation-settings:normal;opacity:1;vector-effect:none;fill:#e3dbdb;fill-opacity:1;stroke:#000000;stroke-width:0.170698px;stroke-linecap:butt;stroke-linejoin:miter;stroke-miterlimit:4;stroke-dasharray:none;stroke-dashoffset:0;stroke-opacity:1;-inkscape-stroke:none;stop-color:#000000;stop-opacity:1"
           d="m -150.35397,200.94392 10.55932,-12.3123 0.57746,0.50461 -10.31184,12.31229 z"
           id="path1675" />
      </g>
    </g>
  </g>
</svg>
